<?xml version="1.0" standalone="no"?>
<!DOCTYPE svg PUBLIC "-//W3C//DTD SVG 20010904//EN"
 "http://www.w3.org/TR/2001/REC-SVG-20010904/DTD/svg10.dtd">
<svg version="1.0" xmlns="http://www.w3.org/2000/svg"
 width="512.000000pt" height="512.000000pt" viewBox="0 0 512.000000 512.000000"
 preserveAspectRatio="xMidYMid meet">

<g transform="translate(0.000000,512.000000) scale(0.100000,-0.100000)"
fill="#000000" stroke="none">
<path d="M2549 4380 c-474 -46 -839 -269 -1113 -680 -64 -96 -75 -134 -52
-178 10 -20 100 -95 243 -204 265 -203 288 -218 328 -218 45 0 75 25 165 133
169 203 252 269 376 302 71 19 230 21 299 4 127 -30 238 -108 281 -195 23 -47
26 -63 22 -122 -11 -146 -78 -228 -271 -327 -176 -91 -273 -159 -378 -264
-107 -106 -176 -205 -216 -308 -23 -60 -27 -86 -31 -217 -5 -165 3 -208 44
-250 l27 -26 370 0 369 0 38 38 c30 30 39 48 45 87 9 70 29 121 74 191 64 96
128 153 280 243 241 144 376 268 450 410 291 567 -15 1216 -703 1490 -203 81
-428 112 -647 91z"/>
<path d="M2231 1609 l-31 -31 0 -387 c0 -341 2 -389 16 -410 34 -48 57 -51
441 -51 337 0 360 1 390 20 62 38 63 42 63 435 0 382 -3 405 -51 439 -21 14
-69 16 -410 16 l-387 0 -31 -31z"/>
</g>
</svg>
